#!OML:ASF E:\emotionWalksFemale\Project 1\Capture day 1\Session 1\Female1.ASF
:FULLY-SPECIFIED
:DEGREES
338
root 10.8281 14.9716 38.8188 166.091 82.0261 -201.892
lowerback 7.82237 -0.780151 -4.28074
upperback -1.77007 -1.46596 0.124784
thorax -6.14028 -0.560251 2.72733
lowerneck -2.89883 -1.77392 -4.01125
upperneck 7.07525 -2.52367 6.11187
head 2.94925 -1.1379 2.6345
rclavicle -1.22998e-014 8.05078e-015
rhumerus -50.4665 2.93427 -82.7735
rradius 36.7858
rwrist 13.7154
rhand -4.82051 -51.889
rfingers 7.12502
rthumb -159.034 -260.776
lclavicle -1.22998e-014 8.05078e-015
lhumerus -35.0825 -22.0339 103.895
lradius 50.131
lwrist -6.87816
lhand -7.26435 -33.455
lfingers 7.12502
lthumb 18.6166 -4.32585
rfemur -38.0594 25.5964 4.01264
rtibia 24.1743
rfoot -26.8473 -41.6448
rtoes 23.9899
lfemur 20.5451 -17.436 -32.4886
ltibia -4.77083e-014
lfoot -10.8956 16.4838
ltoes -40.3573
339
root 10.9644 14.9925 38.844 167.879 82.0773 -200.176
lowerback 7.67026 -0.746032 -4.07929
upperback -1.8588 -1.39334 0.15997
thorax -6.15591 -0.52981 2.63948
lowerneck -3.17284 -1.47924 -3.39263
upperneck 7.27481 -2.12223 5.50116
head 3.01856 -0.936482 2.32864
rclavicle 1.33683e-014 4.47266e-015
rhumerus -50.2602 2.88876 -82.8023
rradius 37.1419
rwrist 13.585
rhand -4.83679 -52.4038
rfingers 7.12502
rthumb -159.05 -261.292
lclavicle 1.33683e-014 4.47266e-015
lhumerus -36.0425 -21.8778 104.095
lradius 50.2567
lwrist -6.55311
lhand -7.09122 -33.6577
lfingers 7.12502
lthumb 18.7831 -4.54459
rfemur -37.6559 24.99 4.94418
rtibia 24.2359
rfoot -20.2524 -42.2889
rtoes 14.3057
lfemur 20.8309 -17.085 -32.0374
ltibia 0
lfoot -9.0821 16.1377
ltoes -42.5848
340
root 11.1049 15.0155 38.8727 169.678 82.1838 -198.227
lowerback 7.73128 -0.700209 -3.89105
upperback -1.86759 -1.31183 0.244401
thorax -6.20768 -0.49399 2.6134
lowerneck -3.52104 -1.1255 -2.99977
upperneck 7.48703 -1.6395 5.03463
head 3.11608 -0.696438 2.12012
rclavicle 1.27968e-014 9.93923e-017
rhumerus -50.1059 3.0084 -82.8437
rradius 37.6065
rwrist 13.3779
rhand -5.06994 -52.7828
rfingers 7.12502
rthumb -159.274 -261.696
lclavicle 1.27968e-014 9.93923e-017
lhumerus -37.1201 -21.501 104.198
lradius 50.6884
lwrist -6.45673
lhand -6.94028 -33.8906
lfingers 7.12502
lthumb 18.9283 -4.79162
rfemur -36.9418 24.3896 6.09304
rtibia 24.2844
rfoot -6.79852 -42.0136
rtoes -9.94481
lfemur 21.3772 -16.6698 -31.4572
ltibia 0
lfoot -8.66709 14.9386
ltoes -37.1286
341
root 11.2431 15.041 38.9017 171.329 82.14 -196.376
lowerback 7.92893 -0.708227 -3.78417
upperback -1.86402 -1.31226 0.385061
thorax -6.31566 -0.493224 2.70532
lowerneck -3.73526 -0.749107 -2.76024
upperneck 7.59241 -1.12329 4.66025
head 3.15934 -0.44447 1.97239
rclavicle 1.75179e-014 1.64991e-014
rhumerus -49.876 3.29265 -82.7156
rradius 37.7118
rwrist 13.3802
rhand -5.81324 -52.3913
rfingers 7.12502
rthumb -159.988 -261.381
lclavicle 1.75179e-014 1.64991e-014
lhumerus -37.5489 -21.3224 104.119
lradius 50.7188
lwrist -5.97072
lhand -6.57502 -33.8752
lfingers 7.12502
lthumb 19.2795 -4.81089
rfemur -36.0343 23.5632 7.30242
rtibia 24.324
rfoot -15.9504 -40.8888
rtoes 11.2269
lfemur 21.9007 -16.3691 -30.9959
ltibia 1.90833e-014
lfoot -7.15061 14.345
ltoes -36.1215
342
root 11.3906 15.0659 38.9272 171.964 82.2567 -195.414
lowerback 8.09699 -0.630892 -3.66072
upperback -1.82684 -1.19966 0.432693
thorax -6.38176 -0.440682 2.67434
lowerneck -3.8931 -0.333234 -2.48071
upperneck 7.82136 -0.565553 4.38299
head 3.23757 -0.166018 1.85441
rclavicle -6.06293e-015 6.95746e-015
rhumerus -49.5666 3.61334 -82.7124
rradius 37.5326
rwrist 13.3177
rhand -5.28618 -52.8041
rfingers 7.12502
rthumb -159.482 -261.74
lclavicle -6.06293e-015 6.95746e-015
lhumerus -38.0848 -20.9901 103.973
lradius 50.4496
lwrist -5.55383
lhand -6.31604 -33.9009
lfingers 7.12502
lthumb 19.5285 -4.86161
rfemur -34.7934 22.1539 8.82894
rtibia 24.2248
rfoot -10.511 -40.0296
rtoes -0.528191
lfemur 22.5604 -15.8577 -30.7033
ltibia -3.81667e-014
lfoot -5.16296 13.9116
ltoes -37.1742
343
root 11.5354 15.0852 38.9558 174.894 82.4215 -192.247
lowerback 8.16421 -0.572313 -3.22393
upperback -1.81506 -1.07359 0.504711
thorax -6.42179 -0.393449 2.48843
lowerneck -3.58891 0.167494 -2.56466
upperneck 7.54358 0.0982614 4.6124
head 3.0601 0.164189 1.96449
rclavicle 1.86485e-014 7.25564e-015
rhumerus -49.1342 3.84367 -82.8375
rradius 37.2749
rwrist 13.2358
rhand -4.05399 -53.1822
rfingers 7.12502
rthumb -158.298 -261.986
lclavicle 1.86485e-014 7.25564e-015
lhumerus -38.5422 -20.4557 103.703
lradius 49.8612
lwrist -5.33229
lhand -6.10654 -33.5138
lfingers 7.12502
lthumb 19.7299 -4.49506
rfemur -33.6874 20.4989 10.6725
rtibia 24.1111
rfoot -13.166 -38.393
rtoes 6.82368
lfemur 23.2176 -15.4009 -29.9003
ltibia 1.27222e-014
lfoot -4.75891 12.9222
ltoes -25.6614
344
root 11.6838 15.1192 38.9878 177.67 82.546 -189.204
lowerback 8.22075 -0.525437 -2.96192
upperback -1.73967 -0.976828 0.621858
thorax -6.38216 -0.355251 2.45098
lowerneck -3.49957 0.6517 -2.30271
upperneck 7.20017 0.750015 4.40968
head 2.89765 0.482978 1.86542
rclavicle -7.42958e-015 1.98785e-016
rhumerus -48.4771 3.87673 -82.7757
rradius 36.7735
rwrist 13.4806
rhand -4.16942 -52.4449
rfingers 7.12502
rthumb -158.409 -261.261
lclavicle -7.42958e-015 1.98785e-016
lhumerus -39.4268 -19.6423 103.223
lradius 50.0399
lwrist -5.09771
lhand -5.55707 -32.863
lfingers 7.12502
lthumb 20.2581 -3.89945
rfemur -32.5838 19.3019 12.1998
rtibia 23.9697
rfoot -9.35176 -37.5944
rtoes -2.02698
lfemur 20.1579 -14.8314 -29.3371
ltibia 7.17211
lfoot -5.4943 12.7364
ltoes -33.0722
345
root 11.8351 15.1483 39.0198 178.545 82.6576 -188.069
lowerback 8.23232 -0.471803 -3.03263
upperback -1.67362 -0.906812 0.707783
thorax -6.32118 -0.318381 2.5711
lowerneck -3.73784 1.17435 -1.72987
upperneck 7.50842 1.44141 3.97619
head 3.02191 0.831934 1.65178
rclavicle -5.00689e-015 6.95746e-015
rhumerus -47.7981 3.94367 -82.6956
rradius 36.1415
rwrist 13.5344
rhand -5.03661 -51.8277
rfingers 7.12502
rthumb -159.242 -260.737
lclavicle -5.00689e-015 6.95746e-015
lhumerus -39.8329 -18.3531 102.519
lradius 49.4557
lwrist -5.07491
lhand -5.08441 -32.8563
lfingers 7.12502
lthumb 20.7123 -3.94161
rfemur -31.4351 18.4706 13.1868
rtibia 23.6337
rfoot -22.1694 -34.8836
rtoes 30.3188
lfemur 18.5318 -14.2972 -28.9361
ltibia 11.4248
lfoot -5.14447 12.5949
ltoes -34.385
346
root 11.9857 15.1746 39.0537 180.916 82.6979 -185.461
lowerback 8.26984 -0.443348 -2.87746
upperback -1.67115 -0.847397 0.804231
thorax -6.34433 -0.292578 2.57754
lowerneck -4.37429 1.74873 -1.10099
upperneck 8.51534 2.20562 3.34512
head 3.47362 1.21994 1.38998
rclavicle -2.74696e-014 1.88845e-015
rhumerus -47.2347 4.04594 -82.7324
rradius 35.5109
rwrist 13.4945
rhand -5.52872 -51.8004
rfingers 7.12502
rthumb -159.715 -260.761
lclavicle -2.74696e-014 1.88845e-015
lhumerus -40.2154 -17.3544 101.817
lradius 48.7497
lwrist -4.74546
lhand -4.69516 -32.588
lfingers 7.12502
lthumb 21.0863 -3.71453
rfemur -30.3078 17.7926 14.2496
rtibia 23.3029
rfoot -9.97273 -36.3198
rtoes 1.0941
lfemur 17.1137 -13.0884 -28.0254
ltibia 14.9659
lfoot -4.1376 11.6189
ltoes -34.3179
347
root 12.1323 15.2047 39.0901 186.994 82.5877 -179.411
lowerback 8.13595 -0.448034 -2.12124
upperback -1.79121 -0.762063 0.943505
thorax -6.40631 -0.273822 2.28495
lowerneck -5.39798 2.40975 0.10763
upperneck 10.0153 3.08397 2.21015
head 4.21647 1.66469 0.887573
rclavicle -2.23633e-015 5.96354e-016
rhumerus -46.747 3.93922 -82.7412
rradius 34.8789
rwrist 13.8167
rhand -5.59945 -51.7255
rfingers 7.12502
rthumb -159.783 -260.693
lclavicle -2.23633e-015 5.96354e-016
lhumerus -40.8319 -16.503 100.993
lradius 48.4016
lwrist -4.45028
lhand -3.85932 -31.7837
lfingers 7.12502
lthumb 21.889 -3.00191
rfemur -29.568 17.0943 15.6966
rtibia 23.092
rfoot -10.3718 -35.7791
rtoes 1.55777
lfemur 15.4751 -11.7993 -26.3628
ltibia 18.1412
lfoot -2.79716 10.4007
ltoes -32.1324
348
root 12.2799 15.2265 39.1228 186.252 82.6507 -179.946
lowerback 8.21549 -0.348252 -2.16802
upperback -1.79552 -0.643044 0.826706
thorax -6.46369 -0.215155 2.17402
lowerneck -5.57048 2.9363 0.467198
upperneck 10.2433 3.77451 2.04501
head 4.33547 2.01363 0.81355
rclavicle 1.81391e-015 5.26779e-015
rhumerus -46.2173 3.72212 -82.6855
rradius 34.3001
rwrist 14.1361
rhand -5.613 -51.4936
rfingers 7.12502
rthumb -159.796 -260.463
lclavicle 1.81391e-015 5.26779e-015
lhumerus -41.1692 -15.831 100.128
lradius 47.6886
lwrist -4.11273
lhand -3.04467 -30.8861
lfingers 7.12502
lthumb 22.6711 -2.19779
rfemur -28.5947 16.1115 16.3973
rtibia 22.9309
rfoot -23.5202 -31.7093
rtoes 36.2831
lfemur 14.2506 -10.6797 -25.7714
ltibia 21.3159
lfoot -2.25192 9.54238
ltoes -19.3033
349
root 12.4304 15.2444 39.1549 186.161 82.6215 -179.802
lowerback 8.24725 -0.253706 -2.16103
upperback -1.73984 -0.520831 0.756962
thorax -6.43003 -0.157868 2.08021
lowerneck -5.66179 3.43878 1.25207
upperneck 10.3203 4.43963 1.40784
head 4.4123 2.34053 0.502567
rclavicle 1.42317e-014 3.47873e-016
rhumerus -45.5932 3.46893 -82.5976
rradius 33.7388
rwrist 14.2852
rhand -5.49072 -51.3894
rfingers 7.12502
rthumb -159.678 -260.346
lclavicle 1.42317e-014 3.47873e-016
lhumerus -41.4398 -15.3965 99.3109
lradius 46.9933
lwrist -3.79489
lhand -2.6929 -29.6515
lfingers 7.12502
lthumb 23.0087 -1.00481
rfemur -27.5563 15.3152 17.1198
rtibia 22.7012
rfoot -7.18314 -33.5722
rtoes -7.26609
lfemur 12.8806 -9.24594 -25.0728
ltibia 24.5581
lfoot -0.327993 8.63667
ltoes -23.8551
350
root 12.582 15.2671 39.1853 186.792 82.6048 -179.056
lowerback 8.16951 -0.163684 -1.99891
upperback -1.75126 -0.386612 0.683305
thorax -6.40568 -0.099853 1.89267
lowerneck -5.54761 3.92967 2.44671
upperneck 10.2542 5.10122 0.322952
head 4.43805 2.65798 -0.0353706
rclavicle 1.43964e-014 8.94531e-016
rhumerus -45.0275 3.16561 -82.4856
rradius 33.1598
rwrist 14.6398
rhand -5.08168 -51.4442
rfingers 7.12502
rthumb -159.285 -260.359
lclavicle 1.43964e-014 8.94531e-016
lhumerus -41.9424 -15.09 98.2399
lradius 46.4598
lwrist -3.52028
lhand -2.45932 -28.91
lfingers 7.12502
lthumb 23.2328 -0.291412
rfemur -26.7529 14.6848 17.8271
rtibia 22.6492
rfoot -9.60334 -32.733
rtoes -0.41918
lfemur 11.5205 -7.90828 -24.2692
ltibia 27.5588
lfoot 1.48368 7.77424
ltoes -26.8636
351
root 12.7309 15.2914 39.2167 188.732 82.5742 -177.056
lowerback 8.04458 -0.0715341 -1.76609
upperback -1.79618 -0.234133 0.727185
thorax -6.38927 -0.0325858 1.78617
lowerneck -5.65928 4.4411 3.29493
upperneck 10.4596 5.79959 -0.533555
head 4.61133 2.99379 -0.423532
rclavicle -4.86401e-015 1.63997e-015
rhumerus -44.5072 2.96555 -82.315
rradius 32.6333
rwrist 15.095
rhand -5.16407 -52.1801
rfingers 7.12502
rthumb -159.364 -261.103
lclavicle -4.86401e-015 1.63997e-015
lhumerus -42.2683 -14.6908 97.4625
lradius 45.7859
lwrist -3.33388
lhand -2.23371 -28.7989
lfingers 7.12502
lthumb 23.4492 -0.207809
rfemur -25.9854 14.2445 18.627
rtibia 22.4832
rfoot -9.87641 -32.175
rtoes -0.253211
lfemur 9.98851 -6.91383 -23.3597
ltibia 30.795
lfoot 2.89525 7.38062
ltoes -23.5251
352
root 12.8993 15.2988 39.2393 192.065 83.1974 -173.094
lowerback 7.99232 0.304417 -1.50699
upperback -1.55439 0.304106 0.847823
thorax -6.12659 0.220685 1.69375
lowerneck -5.92556 4.91947 3.66617
upperneck 11.2102 6.46669 -1.03594
head 4.4831 3.30891 -0.540758
rclavicle -5.09386e-015 -6.26172e-015
rhumerus -44.0454 3.00465 -82.2128
rradius 32.3043
rwrist 15.1144
rhand -5.60718 -52.7733
rfingers 7.12502
rthumb -159.79 -261.742
lclavicle -5.09386e-015 -6.26172e-015
lhumerus -43.0205 -14.308 96.7272
lradius 45.66
lwrist -3.5637
lhand -2.29621 -28.4795
lfingers 7.12502
lthumb 23.3893 0.119283
rfemur -24.5182 14.2128 19.8039
rtibia 22.2037
rfoot -9.15058 -31.4904
rtoes -2.99049
lfemur 9.30214 -5.58271 -22.5389
ltibia 34.0016
lfoot 3.54383 7.6369
ltoes -12.5751
